<svg width="30" height="30" viewBox="0 0 30 30" fill="none" xmlns="http://www.w3.org/2000/svg">
<path d="M15 27.5C21.8925 27.5 27.5 21.8925 27.5 15C27.5 8.1075 21.8925 2.5 15 2.5C8.1075 2.5 2.5 8.1075 2.5 15C2.5 21.8925 8.1075 27.5 15 27.5ZM15 5C20.5138 5 25 9.48625 25 15C25 20.5137 20.5137 25 15 25C9.48625 25 5 20.5137 5 15C5 9.48625 9.48625 5 15 5Z" fill="#3C93F0"/>
<path d="M13.3837 22.1337L20.5175 15L13.3837 7.86622L11.6162 9.63373L16.9825 15L11.6162 20.3662L13.3837 22.1337Z" fill="#3C93F0"/>
</svg>
