<svg width="36" height="36" viewBox="0 0 36 36" fill="none" xmlns="http://www.w3.org/2000/svg">
<g clip-path="url(#clip0_2_812)">
<path d="M18 0C11.6743 0 6.39844 5.09555 6.39844 11.6016C6.39844 14.0767 7.1422 16.2838 8.56962 18.352L17.1122 31.6818C17.5266 32.3298 18.4743 32.3286 18.8878 31.6818L27.4674 18.3066C28.8641 16.3322 29.6016 14.0138 29.6016 11.6016C29.6016 5.20446 24.3971 0 18 0ZM18 16.875C15.0924 16.875 12.7266 14.5092 12.7266 11.6016C12.7266 8.69393 15.0924 6.32812 18 6.32812C20.9076 6.32812 23.2734 8.69393 23.2734 11.6016C23.2734 14.5092 20.9076 16.875 18 16.875Z" fill="#3C93F0"/>
<path d="M26.2451 24.2365L20.9344 32.5394C19.5597 34.6827 16.4327 34.6757 15.0646 32.5415L9.74517 24.2386C5.06489 25.3207 2.17969 27.3031 2.17969 29.672C2.17969 33.7826 10.3309 36.0001 18 36.0001C25.6691 36.0001 33.8203 33.7826 33.8203 29.672C33.8203 27.3014 30.9311 25.318 26.2451 24.2365Z" fill="#3C93F0"/>
</g>
<defs>
<clipPath id="clip0_2_812">
<rect width="36" height="36" fill="white"/>
</clipPath>
</defs>
</svg>
