<svg width="36" height="36" viewBox="0 0 36 36" fill="none" xmlns="http://www.w3.org/2000/svg">
<path d="M8.02005 28.8705C9.78291 28.8705 11.212 27.4417 11.212 25.6791C11.212 23.9165 9.78291 22.4877 8.02005 22.4877C6.2572 22.4877 4.82812 23.9165 4.82812 25.6791C4.82812 27.4417 6.2572 28.8705 8.02005 28.8705Z" fill="#3C93F0"/>
<path d="M24.5377 28.1016C24.4576 25.4919 23.8788 22.9653 22.8382 20.5705H16.223V18.4614H21.794C21.377 17.622 21.164 16.7157 21.1548 15.8003H3.80894V13.6912H21.4938C21.6421 13.2532 21.8383 12.8243 22.083 12.4109C22.2567 12.1178 22.4486 11.8408 22.6568 11.5821H3.80894V9.47292H24.0405V10.2849C25.1396 9.5144 26.4566 9.0883 27.8495 9.0883V0H0V35.9961H17.5885V33.5299C17.5885 30.537 20.1226 28.1016 23.2369 28.1016H24.5377V28.1016ZM3.80894 4.97827H24.0405V7.08743H3.80894V4.97827ZM8.02148 30.9504C5.11327 30.9504 2.74719 28.5853 2.74719 25.6789C2.74719 22.7718 5.11327 20.4074 8.02148 20.4074C10.9297 20.4074 13.2958 22.7717 13.2958 25.6789C13.2958 28.5853 10.9297 30.9504 8.02148 30.9504Z" fill="#3C93F0"/>
<path d="M32.4595 30.2104H23.2342C21.283 30.2104 19.6953 31.6995 19.6953 33.5295V36.0008H35.9984V33.5296C35.9984 31.6995 34.4107 30.2104 32.4595 30.2104Z" fill="#3C93F0"/>
<path d="M23.8994 13.4853C23.1508 14.7594 23.0437 16.3652 23.7623 17.6727C24.636 19.2656 25.3422 20.952 25.8358 22.7016H29.8648C30.3493 20.9861 31.0447 19.2974 31.9384 17.672C32.6437 16.3882 32.5923 14.8232 31.8013 13.4853C30.9533 12.0525 29.4767 11.1975 27.8503 11.1975C26.224 11.1975 24.7474 12.0525 23.8994 13.4853Z" fill="#3C93F0"/>
<path d="M29.0481 28.102C29.0805 26.9764 29.1902 25.8762 29.3779 24.811H26.3164C26.5041 25.8762 26.6138 26.9764 26.6462 28.102H29.0481Z" fill="#3C93F0"/>
</svg>
