<svg width="37" height="36" viewBox="0 0 37 36" fill="none" xmlns="http://www.w3.org/2000/svg">
<path d="M27.3691 23.8152C26.193 22.654 24.7247 22.654 23.5561 23.8152C22.6646 24.6991 21.7731 25.5831 20.8967 26.482C20.657 26.7292 20.4547 26.7817 20.1625 26.6169C19.5857 26.3022 18.9714 26.0475 18.4171 25.703C15.8326 24.0774 13.6676 21.9873 11.7499 19.6351C10.7985 18.4664 9.95198 17.2154 9.36017 15.807C9.24031 15.5224 9.26278 15.3351 9.49501 15.1029C10.3865 14.2414 11.2555 13.3574 12.1319 12.4734C13.353 11.2449 13.353 9.80655 12.1244 8.57049C11.4278 7.86632 10.7311 7.17712 10.0344 6.47295C9.31522 5.75379 8.60355 5.02714 7.8769 4.31547C6.70078 3.16931 5.2325 3.16931 4.06387 4.32296C3.16492 5.20693 2.30343 6.11337 1.38949 6.98235C0.542985 7.78391 0.115984 8.76527 0.0260892 9.91143C-0.116244 11.7767 0.340721 13.5372 0.984967 15.2527C2.30343 18.8035 4.31108 21.9573 6.74573 24.849C10.0344 28.7594 13.9598 31.8533 18.5519 34.0856C20.6195 35.0895 22.762 35.8611 25.0918 35.9884C26.6949 36.0783 28.0883 35.6738 29.2045 34.4228C29.9686 33.5687 30.8301 32.7897 31.6391 31.9731C32.8377 30.7595 32.8452 29.2913 31.6541 28.0927C30.2308 26.6618 28.7999 25.2385 27.3691 23.8152Z" fill="#3C93F0"/>
<path d="M25.9401 17.8441L28.7043 17.3721C28.2699 14.8326 27.0713 12.5328 25.2509 10.7049C23.3256 8.77967 20.891 7.56609 18.2091 7.19153L17.8196 9.97078C19.8947 10.2629 21.7824 11.1993 23.2732 12.6901C24.6816 14.0984 25.603 15.8814 25.9401 17.8441Z" fill="#3C93F0"/>
<path d="M30.2634 5.82818C27.0721 2.63692 23.0343 0.621773 18.577 0L18.1875 2.77925C22.038 3.31862 25.5289 5.06408 28.2857 7.81336C30.9002 10.4278 32.6157 13.7314 33.2374 17.3647L36.0017 16.8927C35.275 12.6827 33.2899 8.86213 30.2634 5.82818Z" fill="#3C93F0"/>
</svg>
