<svg width="36" height="36" viewBox="0 0 36 36" fill="none" xmlns="http://www.w3.org/2000/svg">
<path d="M32.5293 4.5H3.47073C1.55489 4.5 0 6.09827 0 8.06933V27.9307C0 29.9017 1.55489 31.5 3.47073 31.5H32.5293C34.4459 31.5 36 29.9017 36 27.9307V8.06933C36 6.09827 34.4459 4.5 32.5293 4.5ZM3.45994 22.5664C3.45994 22.5243 3.46919 22.4839 3.47073 22.445C3.52627 20.7063 4.74025 19.2873 6.64916 18.5164C5.98355 17.7026 5.58248 16.654 5.58248 15.5102C5.58248 14.207 6.10387 13.0283 6.94147 12.1788C7.13737 11.9805 7.34947 11.7989 7.577 11.6387C8.3074 11.1263 9.18819 10.828 10.1361 10.828C11.084 10.828 11.964 11.1278 12.6936 11.6387C13.8976 12.4818 14.6889 13.9024 14.6889 15.5102C14.6889 16.6532 14.2871 17.7018 13.6222 18.5156C15.454 19.2548 16.6534 20.5882 16.7953 22.234C16.8099 22.3435 16.8146 22.4553 16.8146 22.5672C16.8146 23.2667 16.5431 23.8973 16.1073 24.3637C15.6484 24.8531 15.0067 25.1617 14.2925 25.1617C14.2909 25.1617 14.2894 25.1617 14.2863 25.1617H5.98046C4.62302 25.1617 3.52472 24.056 3.46919 22.6766C3.46919 22.6385 3.45994 22.6044 3.45994 22.5664ZM32.5293 23.661C32.4753 24.4859 31.8128 25.1395 30.9975 25.1395H21.7422C21.18 25.1395 20.6925 24.8254 20.421 24.3613C20.2837 24.1242 20.1997 23.8489 20.1997 23.5531C20.1997 22.6774 20.8907 21.9667 21.7422 21.9667H29.0585H30.9975C31.8151 21.9667 32.4753 22.6203 32.5293 23.4444C32.5316 23.4817 32.5401 23.5158 32.5401 23.5531C32.5401 23.5904 32.5316 23.6245 32.5293 23.661ZM32.5293 18.1079C32.4753 18.932 31.8128 19.5856 30.9975 19.5856H29.0585H21.7422C20.8907 19.5856 20.1997 18.8749 20.1997 17.9992C20.1997 17.1235 20.8907 16.4128 21.7422 16.4128H29.0585H30.9975C31.8151 16.4128 32.4753 17.0664 32.5293 17.8913C32.5316 17.9278 32.5401 17.9619 32.5401 17.9984C32.5393 18.0365 32.5316 18.0706 32.5293 18.1079ZM32.5293 12.5548C32.4753 13.3797 31.8128 14.0333 30.9975 14.0333H29.0585H21.7422C20.8907 14.0333 20.1997 13.3226 20.1997 12.4469C20.1997 12.1503 20.2837 11.8758 20.421 11.6387C20.6925 11.1739 21.1784 10.8605 21.7422 10.8605H30.9975C31.8151 10.8605 32.4753 11.5141 32.5293 12.339C32.5316 12.3755 32.5401 12.4096 32.5401 12.4469C32.5401 12.4842 32.5316 12.5183 32.5293 12.5548Z" fill="#3C93F0"/>
</svg>
