<svg width="20" height="20" viewBox="0 0 20 20" fill="none" xmlns="http://www.w3.org/2000/svg">
<path d="M18.9983 14.5V5.5C18.9983 4.67 18.3283 4 17.4983 4H3.48828C2.65828 4 1.98828 4.67 1.98828 5.5V14.5C1.98828 15.33 2.65828 16 3.48828 16H17.4983C18.3283 16 18.9983 15.33 18.9983 14.5ZM17.6883 5.39C18.0183 5.72 17.8383 6.06 17.6583 6.23L13.5983 9.95L17.4983 14.01C17.6183 14.15 17.6983 14.37 17.5583 14.52C17.4283 14.68 17.1283 14.67 16.9983 14.57L12.6283 10.84L10.4883 12.79L8.35828 10.84L3.98828 14.57C3.85828 14.67 3.55828 14.68 3.42828 14.52C3.28828 14.37 3.36828 14.15 3.48828 14.01L7.38828 9.95L3.32828 6.23C3.14828 6.06 2.96828 5.72 3.29828 5.39C3.62828 5.06 3.96828 5.22 4.24828 5.46L10.4883 10.5L16.7383 5.46C17.0183 5.22 17.3583 5.06 17.6883 5.39Z" fill="white"/>
</svg>
