<svg width="18" height="17" viewBox="0 0 18 17" fill="none" xmlns="http://www.w3.org/2000/svg">
<path fill-rule="evenodd" clip-rule="evenodd" d="M18 8.5C18 13.1944 13.9706 17 9 17C4.02944 17 0 13.1944 0 8.5C0 3.80558 4.02944 0 9 0C13.9706 0 18 3.80558 18 8.5ZM11.5691 11.2694C11.7051 11.3658 11.8638 11.4122 12.0217 11.4122C12.2522 11.4122 12.4788 11.3144 12.627 11.126C12.8779 10.8113 12.8099 10.3638 12.4759 10.1276L9.7555 8.2006V4.27531C9.7555 3.88136 9.41695 3.56161 8.99982 3.56161C8.58269 3.56161 8.24414 3.88136 8.24414 4.27531V8.55742C8.24414 8.78225 8.35599 8.99421 8.54641 9.12838L11.5691 11.2694Z" fill="#3C93F0"/>
</svg>
