<svg width="16" height="18" viewBox="0 0 16 18" fill="none" xmlns="http://www.w3.org/2000/svg">
<path d="M13.3033 2.22982C11.8868 0.791894 10.0033 0 8.00002 0C5.99671 0 4.11327 0.791894 2.69674 2.22982C1.28013 3.66778 0.5 5.57958 0.5 7.61305C0.5 11.7268 4.33192 15.1484 6.39057 16.9866C6.67661 17.242 6.92366 17.4626 7.12041 17.6492C7.36704 17.8831 7.68346 18 7.99998 18C8.31647 18 8.63296 17.883 8.87955 17.6492C9.07638 17.4626 9.32339 17.2421 9.60943 16.9866C11.6681 15.1484 15.5 11.7268 15.5 7.61309C15.5 5.57958 14.7199 3.66778 13.3033 2.22982ZM8.00002 10.6804C6.17754 10.6804 4.69488 9.17536 4.69488 7.3254C4.69488 5.47545 6.17754 3.97044 8.00002 3.97044C9.8225 3.97044 11.3052 5.47545 11.3052 7.3254C11.3052 9.17536 9.82246 10.6804 8.00002 10.6804Z" fill="#EC1C24"/>
</svg>
