<svg width="32" height="32" viewBox="0 0 32 32" fill="none" xmlns="http://www.w3.org/2000/svg">
<g filter="url(#filter0_d_2_1749)">
<path d="M17.0297 1.70464L6.03995 0.0221663C5.52996 -0.0584314 5.00998 0.0826146 4.61999 0.41508C4.22999 0.757621 4 1.25128 4 1.76509V22.9925C4 23.5466 4.44999 24 4.99998 24H8.2499V18.7108C8.2499 17.7335 9.02988 16.9477 9.99986 16.9477H12.4998C13.4698 16.9477 14.2498 17.7335 14.2498 18.7108V24H18.4997V3.44757C18.4997 2.58115 17.8797 1.84569 17.0297 1.70464ZM9.49987 14.6809H7.99991C7.58592 14.6809 7.24992 14.3424 7.24992 13.9253C7.24992 13.5082 7.58592 13.1697 7.99991 13.1697H9.49987C9.91386 13.1697 10.2499 13.5082 10.2499 13.9253C10.2499 14.3424 9.91386 14.6809 9.49987 14.6809ZM9.49987 11.6585H7.99991C7.58592 11.6585 7.24992 11.32 7.24992 10.9029C7.24992 10.4858 7.58592 10.1473 7.99991 10.1473H9.49987C9.91386 10.1473 10.2499 10.4858 10.2499 10.9029C10.2499 11.32 9.91386 11.6585 9.49987 11.6585ZM9.49987 8.63605H7.99991C7.58592 8.63605 7.24992 8.29754 7.24992 7.88045C7.24992 7.46335 7.58592 7.12484 7.99991 7.12484H9.49987C9.91386 7.12484 10.2499 7.46335 10.2499 7.88045C10.2499 8.29754 9.91386 8.63605 9.49987 8.63605ZM9.49987 5.61364H7.99991C7.58592 5.61364 7.24992 5.27513 7.24992 4.85803C7.24992 4.44094 7.58592 4.10243 7.99991 4.10243H9.49987C9.91386 4.10243 10.2499 4.44094 10.2499 4.85803C10.2499 5.27513 9.91386 5.61364 9.49987 5.61364ZM14.4998 14.6809H12.9998C12.5858 14.6809 12.2498 14.3424 12.2498 13.9253C12.2498 13.5082 12.5858 13.1697 12.9998 13.1697H14.4998C14.9137 13.1697 15.2497 13.5082 15.2497 13.9253C15.2497 14.3424 14.9137 14.6809 14.4998 14.6809ZM14.4998 11.6585H12.9998C12.5858 11.6585 12.2498 11.32 12.2498 10.9029C12.2498 10.4858 12.5858 10.1473 12.9998 10.1473H14.4998C14.9137 10.1473 15.2497 10.4858 15.2497 10.9029C15.2497 11.32 14.9137 11.6585 14.4998 11.6585ZM14.4998 8.63605H12.9998C12.5858 8.63605 12.2498 8.29754 12.2498 7.88045C12.2498 7.46335 12.5858 7.12484 12.9998 7.12484H14.4998C14.9137 7.12484 15.2497 7.46335 15.2497 7.88045C15.2497 8.29754 14.9137 8.63605 14.4998 8.63605ZM14.4998 5.61364H12.9998C12.5858 5.61364 12.2498 5.27513 12.2498 4.85803C12.2498 4.44094 12.5858 4.10243 12.9998 4.10243H14.4998C14.9137 4.10243 15.2497 4.44094 15.2497 4.85803C15.2497 5.27513 14.9137 5.61364 14.4998 5.61364Z" fill="#3E3E3E"/>
<path d="M26.6198 10.7436L19.5 9.24146V23.9999H26.2498C27.2148 23.9999 27.9998 23.209 27.9998 22.2368V12.4664C27.9998 11.6342 27.4368 10.9259 26.6198 10.7436ZM24.2499 20.9775H22.7499C22.3359 20.9775 21.9999 20.639 21.9999 20.2219C21.9999 19.8048 22.3359 19.4663 22.7499 19.4663H24.2499C24.6639 19.4663 24.9999 19.8048 24.9999 20.2219C24.9999 20.639 24.6639 20.9775 24.2499 20.9775ZM24.2499 17.9551H22.7499C22.3359 17.9551 21.9999 17.6166 21.9999 17.1995C21.9999 16.7824 22.3359 16.4439 22.7499 16.4439H24.2499C24.6639 16.4439 24.9999 16.7824 24.9999 17.1995C24.9999 17.6166 24.6639 17.9551 24.2499 17.9551ZM24.2499 14.9327H22.7499C22.3359 14.9327 21.9999 14.5942 21.9999 14.1771C21.9999 13.76 22.3359 13.4215 22.7499 13.4215H24.2499C24.6639 13.4215 24.9999 13.76 24.9999 14.1771C24.9999 14.5942 24.6639 14.9327 24.2499 14.9327Z" fill="#3E3E3E"/>
</g>
<defs>
<filter id="filter0_d_2_1749" x="0" y="0" width="32" height="32" filterUnits="userSpaceOnUse" color-interpolation-filters="sRGB">
<feFlood flood-opacity="0" result="BackgroundImageFix"/>
<feColorMatrix in="SourceAlpha" type="matrix" values="0 0 0 0 0 0 0 0 0 0 0 0 0 0 0 0 0 0 127 0" result="hardAlpha"/>
<feOffset dy="4"/>
<feGaussianBlur stdDeviation="2"/>
<feComposite in2="hardAlpha" operator="out"/>
<feColorMatrix type="matrix" values="0 0 0 0 0 0 0 0 0 0 0 0 0 0 0 0 0 0 0.25 0"/>
<feBlend mode="normal" in2="BackgroundImageFix" result="effect1_dropShadow_2_1749"/>
<feBlend mode="normal" in="SourceGraphic" in2="effect1_dropShadow_2_1749" result="shape"/>
</filter>
</defs>
</svg>
