<svg width="31" height="22" viewBox="0 0 31 22" fill="none" xmlns="http://www.w3.org/2000/svg">
<g clip-path="url(#clip0_2_79)">
<path d="M17.7467 14.6259C17.4976 14.6259 17.2587 14.5586 17.0826 14.4387C16.9065 14.3188 16.8075 14.1562 16.8075 13.9867L16.8075 7.59408C16.8075 7.42454 16.9065 7.26194 17.0826 7.14206C17.2587 7.02218 17.4976 6.95482 17.7467 6.95482C17.9958 6.95483 18.2347 7.02218 18.4109 7.14206C18.587 7.26194 18.686 7.42454 18.686 7.59408L18.686 13.9867C18.686 14.1562 18.587 14.3188 18.4109 14.4387C18.2347 14.5586 17.9958 14.6259 17.7467 14.6259ZM14.9291 13.9867L14.9291 7.59408C14.9291 7.42454 14.8301 7.26194 14.654 7.14206C14.4778 7.02218 14.2389 6.95482 13.9898 6.95482C13.7407 6.95482 13.5018 7.02218 13.3257 7.14206C13.1496 7.26194 13.0506 7.42454 13.0506 7.59408L13.0506 13.9867C13.0506 14.1562 13.1496 14.3188 13.3257 14.4387C13.5018 14.5586 13.7407 14.6259 13.9898 14.6259C14.2389 14.6259 14.4778 14.5586 14.654 14.4387C14.8301 14.3188 14.9291 14.1562 14.9291 13.9867ZM18.686 21.0185L15.8683 21.0185C14.8722 21.0177 13.9173 20.7481 13.213 20.2687C12.5087 19.7893 12.1125 19.1394 12.1114 18.4614L12.1114 18.0462C10.4231 17.522 8.94161 16.5076 7.74304 15.0391C6.37201 13.3593 5.75188 11.5612 5.59456 11.0501C5.54136 10.8788 5.54136 10.7018 5.59456 10.5305C5.75188 10.0195 6.37201 8.22143 7.74304 6.54155C8.94173 5.07317 10.423 4.05883 12.1114 3.53456L12.1114 3.11928C12.1125 2.44135 12.5087 1.7914 13.213 1.31203C13.9173 0.832662 14.8722 0.563017 15.8683 0.562255L18.686 0.562255C19.682 0.563017 20.6369 0.832662 21.3413 1.31203C22.0456 1.7914 22.4417 2.44135 22.4429 3.11928L22.4429 3.20167C22.6969 3.26644 22.9274 3.36781 23.1186 3.49885C23.3097 3.62989 23.457 3.78749 23.5503 3.96087L26.9657 10.3534C27.1163 10.6357 27.1163 10.945 26.9657 11.2273L23.5504 17.6199C23.4571 17.7932 23.3097 17.9508 23.1186 18.0818C22.9274 18.2129 22.6969 18.3142 22.4429 18.379L22.4429 18.4615C22.4417 19.1394 22.0456 19.7893 21.3413 20.2687C20.6369 20.7481 19.682 21.0177 18.686 21.0185ZM13.9898 3.16347C14.3011 3.13418 14.6149 3.11942 14.9291 3.11928L20.5644 3.11928C20.5639 2.78032 20.3658 2.45534 20.0136 2.21566C19.6615 1.97597 19.184 1.84115 18.686 1.84077L15.8683 1.84077C15.3703 1.84115 14.8928 1.97597 14.5406 2.21566C14.1885 2.45534 13.9904 2.78032 13.9898 3.11928L13.9898 3.16347ZM14.9291 17.1829L21.7849 17.1829L25.2003 10.7904L21.7851 4.3978L14.9291 4.3978C9.55739 4.3978 7.63456 10.1383 7.43298 10.7928C7.63456 11.4425 9.55739 17.1829 14.9291 17.1829ZM18.686 19.74C19.184 19.7396 19.6614 19.6048 20.0136 19.3651C20.3658 19.1254 20.5639 18.8004 20.5644 18.4615L14.9291 18.4615C14.6149 18.4613 14.3011 18.4466 13.9898 18.4173L13.9898 18.4615C13.9904 18.8004 14.1885 19.1254 14.5406 19.3651C14.8928 19.6048 15.3703 19.7396 15.8683 19.74L18.686 19.74Z" fill="white"/>
</g>
<defs>
<clipPath id="clip0_2_79">
<rect width="20.4562" height="30.0552" fill="white" transform="translate(30.8959 0.562256) rotate(90)"/>
</clipPath>
</defs>
</svg>
