<svg width="12" height="12" viewBox="0 0 12 12" fill="none" xmlns="http://www.w3.org/2000/svg">
<path d="M9.53578 1.48655C8.59142 0.52793 7.33579 0 6.00026 0C4.66472 0 3.40909 0.52793 2.46474 1.48655C1.52033 2.44519 1.00024 3.71972 1.00024 5.07537C1.00024 7.81786 3.55486 10.0989 4.92729 11.3244C5.11799 11.4947 5.28268 11.6417 5.41385 11.7661C5.57827 11.9221 5.78922 12 6.00023 12C6.21122 12 6.42221 11.922 6.58661 11.7662C6.71783 11.6418 6.8825 11.4947 7.0732 11.3244C8.44563 10.0989 11.0002 7.81788 11.0002 5.07539C11.0002 3.71972 10.4802 2.44519 9.53578 1.48655ZM6.00026 7.12024C4.78527 7.12024 3.79683 6.11691 3.79683 4.8836C3.79683 3.6503 4.78527 2.64696 6.00026 2.64696C7.21524 2.64696 8.20368 3.6503 8.20368 4.8836C8.20368 6.11691 7.21522 7.12024 6.00026 7.12024Z" fill="#EC1C24"/>
</svg>
