<svg width="18" height="19" viewBox="0 0 18 19" fill="none" xmlns="http://www.w3.org/2000/svg">
<g clip-path="url(#clip0_2_1977)">
<path d="M6.55805 10.4306C6.55805 10.2051 6.37516 10.0225 6.14949 10.0225H4.72377C4.49836 10.0225 4.31543 10.2051 4.31543 10.4306V11.8562C4.31543 12.0819 4.49836 12.2647 4.72377 12.2647H6.14949C6.37516 12.2647 6.55805 12.0819 6.55805 11.8562V10.4306Z" fill="#09D743"/>
<path d="M10.1208 10.4306C10.1208 10.2051 9.9379 10.0225 9.71268 10.0225H8.28676C8.06135 10.0225 7.87842 10.2051 7.87842 10.4306V11.8562C7.87842 12.0819 8.06135 12.2647 8.28676 12.2647H9.71268C9.9379 12.2647 10.1208 12.0819 10.1208 11.8562V10.4306Z" fill="#09D743"/>
<path d="M13.6845 10.4306C13.6845 10.2051 13.5016 10.0225 13.2762 10.0225H11.8505C11.6248 10.0225 11.4419 10.2051 11.4419 10.4306V11.8562C11.4419 12.0819 11.6248 12.2647 11.8505 12.2647H13.2762C13.5016 12.2647 13.6845 12.0819 13.6845 11.8562V10.4306Z" fill="#09D743"/>
<path d="M6.55805 13.9939C6.55805 13.7681 6.37516 13.5856 6.14949 13.5856H4.72377C4.49836 13.5856 4.31543 13.7681 4.31543 13.9939V15.4192C4.31543 15.6449 4.49836 15.8276 4.72377 15.8276H6.14949C6.37516 15.8276 6.55805 15.6448 6.55805 15.4192V13.9939Z" fill="#09D743"/>
<path d="M10.1208 13.9939C10.1208 13.7681 9.9379 13.5856 9.71268 13.5856H8.28676C8.06135 13.5856 7.87842 13.7681 7.87842 13.9939V15.4192C7.87842 15.6449 8.06135 15.8276 8.28676 15.8276H9.71268C9.9379 15.8276 10.1208 15.6448 10.1208 15.4192V13.9939Z" fill="#09D743"/>
<path d="M13.6845 13.9939C13.6845 13.7681 13.5016 13.5856 13.2764 13.5856H11.8505C11.6248 13.5856 11.4419 13.7681 11.4419 13.9939V15.4192C11.4419 15.6449 11.6248 15.8276 11.8505 15.8276H13.2764C13.5016 15.8276 13.6845 15.6448 13.6845 15.4192V13.9939Z" fill="#09D743"/>
<path d="M16.2335 2.50428V4.68167C16.2335 5.66583 15.4351 6.45891 14.4511 6.45891H13.3267C12.3426 6.45891 11.5337 5.66583 11.5337 4.68167V2.49646H6.46573V4.68167C6.46573 5.66583 5.65679 6.45891 4.67285 6.45891H3.54824C2.56426 6.45891 1.76591 5.66583 1.76591 4.68167V2.50428C0.905904 2.5302 0.199219 3.24183 0.199219 4.11651V16.8771C0.199219 17.7682 0.921502 18.5001 1.81263 18.5001H16.1868C17.0766 18.5001 17.8002 17.7667 17.8002 16.8771V4.11651C17.8002 3.24183 17.0935 2.5302 16.2335 2.50428ZM15.7113 16.0825C15.7113 16.4676 15.399 16.78 15.0138 16.78H2.95491C2.56965 16.78 2.2574 16.4676 2.2574 16.0825V9.49115C2.2574 9.1059 2.56961 8.79347 2.95491 8.79347H15.0137C15.399 8.79347 15.7112 9.1059 15.7112 9.49115L15.7113 16.0825Z" fill="#09D743"/>
<path d="M3.5444 5.29156H4.65658C4.99416 5.29156 5.26788 5.01825 5.26788 4.68067V1.11111C5.26788 0.773493 4.99416 0.5 4.65658 0.5H3.5444C3.20678 0.5 2.93311 0.773493 2.93311 1.11111V4.68067C2.93311 5.01825 3.20678 5.29156 3.5444 5.29156Z" fill="#09D743"/>
<path d="M13.3124 5.29156H14.4246C14.762 5.29156 15.0357 5.01825 15.0357 4.68067V1.11111C15.0357 0.773493 14.762 0.5 14.4246 0.5H13.3124C12.9749 0.5 12.7012 0.773493 12.7012 1.11111V4.68067C12.7012 5.01825 12.9749 5.29156 13.3124 5.29156Z" fill="#09D743"/>
</g>
<defs>
<clipPath id="clip0_2_1977">
<rect width="18" height="18" fill="white" transform="translate(0 0.5)"/>
</clipPath>
</defs>
</svg>
