<svg width="18" height="19" viewBox="0 0 18 19" fill="none" xmlns="http://www.w3.org/2000/svg">
<path d="M5.22971 10.7787C5.73556 10.7787 6.22451 10.746 6.68719 10.6852V5.61384C6.22455 5.55306 5.73556 5.52039 5.22971 5.52039C2.34143 5.52039 0 6.58232 0 7.89233V8.40673C0 9.7167 2.34143 10.7787 5.22971 10.7787Z" fill="#09D743"/>
<path d="M5.22971 13.4267C5.73556 13.4267 6.22451 13.3941 6.68719 13.3333V11.8468C6.22442 11.9076 5.73569 11.9407 5.22971 11.9407C2.70855 11.9407 0.604271 11.1315 0.10999 10.0546C0.0380079 10.2114 0 10.3739 0 10.5404V11.0548C0 12.3648 2.34143 13.4267 5.22971 13.4267Z" fill="#09D743"/>
<path d="M6.68719 14.6105V14.495C6.22442 14.5558 5.73569 14.5889 5.22971 14.5889C2.70855 14.5889 0.604271 13.7797 0.10999 12.7028C0.0380079 12.8596 0 13.022 0 13.1885V13.7029C0 15.013 2.34143 16.0749 5.22971 16.0749C5.80732 16.0749 6.36287 16.0323 6.88238 15.9539C6.75361 15.6905 6.68719 15.4127 6.68719 15.1249V14.6105Z" fill="#09D743"/>
<path d="M12.7702 1.50305C9.88196 1.50305 7.54053 2.56499 7.54053 3.875V4.38941C7.54053 5.69943 9.88196 6.76136 12.7702 6.76136C15.6585 6.76136 18 5.69943 18 4.38941V3.875C18 2.56499 15.6585 1.50305 12.7702 1.50305Z" fill="#09D743"/>
<path d="M12.7702 7.92349C10.2491 7.92349 8.1448 7.11435 7.65052 6.03735C7.57854 6.19418 7.54053 6.35661 7.54053 6.52316V7.03757C7.54053 8.34758 9.88196 9.40951 12.7702 9.40951C15.6585 9.40951 18 8.34758 18 7.03757V6.52316C18 6.35661 17.962 6.19418 17.89 6.03735C17.3957 7.11435 15.2914 7.92349 12.7702 7.92349Z" fill="#09D743"/>
<path d="M12.7702 10.5717C10.2491 10.5717 8.1448 9.7625 7.65052 8.68555C7.57854 8.84237 7.54053 9.0048 7.54053 9.17136V9.68577C7.54053 10.9958 9.88196 12.0578 12.7702 12.0578C15.6585 12.0578 18 10.9958 18 9.68577V9.17136C18 9.0048 17.962 8.84237 17.89 8.68555C17.3957 9.76255 15.2914 10.5717 12.7702 10.5717Z" fill="#09D743"/>
<path d="M12.7702 13.3628C10.2491 13.3628 8.1448 12.5536 7.65052 11.4767C7.57854 11.6336 7.54053 11.7959 7.54053 11.9624V12.4769C7.54053 13.7869 9.88196 14.8488 12.7702 14.8488C15.6585 14.8488 18 13.7869 18 12.4769V11.9624C18 11.7959 17.962 11.6335 17.89 11.4767C17.3957 12.5536 15.2914 13.3628 12.7702 13.3628Z" fill="#09D743"/>
<path d="M12.7702 16.0109C10.2491 16.0109 8.1448 15.2017 7.65052 14.1248C7.57854 14.2817 7.54053 14.4441 7.54053 14.6106V15.125C7.54053 16.435 9.88196 17.4969 12.7702 17.4969C15.6585 17.4969 18 16.435 18 15.125V14.6105C18 14.444 17.962 14.2815 17.89 14.1248C17.3957 15.2017 15.2914 16.0109 12.7702 16.0109Z" fill="#09D743"/>
</svg>
