<svg width="60" height="60" viewBox="0 0 60 60" fill="none" xmlns="http://www.w3.org/2000/svg">
<rect width="60" height="60" rx="3" fill="#FED036"/>
<path d="M39.9955 15.5159C39.9955 15.379 39.9364 15.2478 39.8312 15.1511C39.726 15.0543 39.5834 15 39.4346 15H28.8894V41.8244H39.9955V15.5159ZM31.2228 28.4122C31.2228 28.549 31.1637 28.6802 31.0585 28.777C30.9533 28.8737 30.8106 28.9281 30.6619 28.9281C30.5131 28.9281 30.3704 28.8737 30.2653 28.777C30.1601 28.6802 30.101 28.549 30.101 28.4122V18.7657C30.101 18.6289 30.1601 18.4977 30.2653 18.401C30.3704 18.3042 30.5131 18.2499 30.6619 18.2499C30.8099 18.252 30.9513 18.307 31.0559 18.4033C31.1606 18.4996 31.2205 18.6296 31.2228 18.7657V28.4122ZM27.7676 15H20.5654C20.4166 15 20.274 15.0543 20.1688 15.1511C20.0636 15.2478 20.0045 15.379 20.0045 15.5159V41.8244H27.7676V15ZM26.4887 36.6349C26.4887 36.7717 26.4296 36.9029 26.3244 36.9997C26.2192 37.0964 26.0765 37.1508 25.9278 37.1508H21.8331C21.685 37.1486 21.5437 37.0936 21.439 36.9973C21.3343 36.901 21.2745 36.7711 21.2722 36.6349V32.1367C21.2722 31.9999 21.3313 31.8686 21.4364 31.7719C21.5416 31.6752 21.6843 31.6208 21.8331 31.6208H25.9278C26.0765 31.6208 26.2192 31.6752 26.3244 31.7719C26.4296 31.8686 26.4887 31.9999 26.4887 32.1367V36.6349ZM26.556 28.4122C26.556 28.549 26.4969 28.6802 26.3917 28.777C26.2865 28.8737 26.1438 28.9281 25.9951 28.9281C25.8463 28.9281 25.7036 28.8737 25.5984 28.777C25.4932 28.6802 25.4341 28.549 25.4341 28.4122V18.7657C25.4341 18.6289 25.4932 18.4977 25.5984 18.401C25.7036 18.3042 25.8463 18.2499 25.9951 18.2499C26.1438 18.2499 26.2865 18.3042 26.3917 18.401C26.4969 18.4977 26.556 18.6289 26.556 18.7657V28.4122ZM40 42.8561V44.4841C40 44.621 39.9409 44.7522 39.8357 44.8489C39.7305 44.9456 39.5878 45 39.4391 45H37.7406C35.1885 44.5648 32.5951 44.3682 30 44.413C27.4049 44.3682 24.8115 44.5648 22.2594 45H20.5609C20.4122 45 20.2695 44.9456 20.1643 44.8489C20.0591 44.7522 20 44.621 20 44.4841V42.8602L40 42.8561ZM22.394 32.6525H25.3668V33.3541H22.394V32.6525ZM22.394 34.3858H25.3668V36.1191H22.394V34.3858Z" fill="#3E3E3E"/>
</svg>
