<svg width="60" height="60" viewBox="0 0 60 60" fill="none" xmlns="http://www.w3.org/2000/svg">
<rect width="60" height="60" rx="3" fill="#FED036"/>
<g clip-path="url(#clip0_2133_3400)">
<path d="M44.9995 43.1693V23.0903H15.0012V42.9659C15.0012 43.5297 14.9793 44.0507 15.399 44.5146C15.8515 45.0142 16.45 44.9999 17.0558 44.9999H43.4777C43.4887 44.9999 43.4996 44.9999 43.5069 44.9999C44.3463 44.9642 44.9849 44.3148 44.9995 43.4905C44.9995 43.3834 44.9995 43.2764 44.9995 43.1693ZM21.1359 31.4188C21.0994 31.3795 21.0629 31.3438 21.03 31.301C21.0227 31.2939 21.0081 31.2725 20.9972 31.2582L20.9935 31.2546C20.9242 31.1512 20.8585 31.0512 20.8038 30.9406C20.7928 30.9156 20.7819 30.8942 20.7673 30.8693V30.8657C20.749 30.8193 20.7308 30.7515 20.7271 30.7408C20.7089 30.6908 20.6979 30.6373 20.6833 30.5838C20.676 30.5481 20.6687 30.5124 20.6614 30.4767C20.6614 30.4732 20.6578 30.4589 20.6578 30.4482C20.6542 30.4125 20.6469 30.3269 20.6469 30.3126C20.6432 30.2591 20.6432 30.2055 20.6432 30.152C20.6432 30.0985 20.6469 30.0414 20.6505 29.9879C20.6542 29.9593 20.676 29.8666 20.6687 29.8309C20.6687 29.8237 20.6724 29.813 20.6724 29.8059C20.6797 29.7595 20.6906 29.7131 20.7016 29.6703C20.7271 29.5632 20.7563 29.4598 20.7892 29.3563C20.8184 29.2599 20.8585 29.1672 20.895 29.0744C20.8987 29.0672 20.9023 29.0601 20.906 29.053C20.9279 29.003 20.9534 28.9531 20.9753 28.9067C21.0702 28.7211 21.1724 28.5427 21.2855 28.3678C21.384 28.218 21.5008 28.0824 21.603 27.9325C21.6067 27.9289 21.6067 27.9254 21.6103 27.9218C21.6103 27.9218 21.614 27.9182 21.614 27.9147C21.6176 27.9111 21.6176 27.9111 21.6176 27.9075C21.6176 27.904 21.6213 27.9004 21.6249 27.8968C21.6322 27.8861 21.6395 27.8754 21.6468 27.8683C21.6796 27.829 21.7088 27.7933 21.7417 27.7541C21.8037 27.6827 21.8658 27.6114 21.9315 27.54C22.0993 27.3544 22.2781 27.176 22.4643 27.0047C22.7161 27.2367 22.9533 27.4793 23.1759 27.7398C23.2124 27.7826 23.2452 27.8219 23.2817 27.8647C23.2963 27.8826 23.3146 27.904 23.3255 27.9218L23.3292 27.9254L23.3328 27.9289C23.3328 27.9289 23.3365 27.9325 23.3365 27.9361C23.4058 28.0289 23.4788 28.1252 23.5445 28.2215C23.6357 28.3536 23.7197 28.4856 23.8 28.6248C23.8292 28.6783 23.8584 28.7318 23.8876 28.7853C23.9021 28.8103 23.9131 28.8353 23.9277 28.8603C23.9313 28.8638 23.9313 28.8674 23.935 28.871C23.9386 28.8781 23.9423 28.8853 23.9459 28.8924C23.9496 28.8995 23.9532 28.9067 23.9569 28.9138C23.9642 28.9281 23.9715 28.9459 23.9788 28.9602L23.9861 28.9745C24.0007 29.003 24.0116 29.028 24.0262 29.0565C24.0299 29.0637 24.0299 29.0672 24.0335 29.0708C24.0335 29.0708 24.0335 29.0744 24.0372 29.0744V29.0779C24.0408 29.0851 24.0445 29.0958 24.0481 29.1101C24.0554 29.1279 24.0591 29.1422 24.0664 29.16C24.0737 29.1814 24.0846 29.2028 24.0919 29.2243C24.1211 29.3028 24.1467 29.3813 24.1686 29.4633V29.4669C24.1722 29.4812 24.1759 29.4954 24.1795 29.5062C24.1795 29.5097 24.1795 29.5133 24.1832 29.5169C24.1868 29.5311 24.1905 29.5454 24.1941 29.5632C24.1941 29.5668 24.1978 29.5739 24.1978 29.5775C24.2014 29.5847 24.2014 29.5954 24.2051 29.6025C24.2051 29.6061 24.2051 29.6096 24.2087 29.6132C24.2196 29.6632 24.2306 29.7095 24.2415 29.7595C24.2452 29.7738 24.2488 29.7916 24.2488 29.8059C24.2488 29.8095 24.2488 29.813 24.2488 29.8166V29.8202V29.8237C24.2488 29.8273 24.2488 29.8309 24.2488 29.8344V29.838C24.2488 29.838 24.2488 29.8416 24.2488 29.8451C24.2488 29.8451 24.2488 29.8487 24.2488 29.8523V29.8558C24.2488 29.8666 24.2488 29.8773 24.2525 29.888V29.8915C24.2561 29.9094 24.2561 29.9272 24.2598 29.9379C24.2671 30.0093 24.2671 30.0771 24.2707 30.1485C24.2707 30.1627 24.2707 30.177 24.2707 30.1877C24.2707 30.1948 24.2707 30.202 24.2707 30.2091C24.2707 30.2163 24.2707 30.2234 24.2707 30.2305C24.2707 30.2733 24.2671 30.3197 24.2634 30.3626C24.2634 30.3697 24.2634 30.3804 24.2598 30.3982V30.4018C24.2598 30.4018 24.2598 30.4054 24.2598 30.4089C24.2598 30.4196 24.2561 30.4304 24.2561 30.4375C24.2561 30.4518 24.2525 30.4625 24.2525 30.4696C24.2525 30.4732 24.2525 30.4767 24.2525 30.4767C24.2525 30.4803 24.2525 30.4589 24.2525 30.4339C24.2452 30.4696 24.2379 30.5231 24.2342 30.5374C24.2233 30.5874 24.2087 30.6337 24.1978 30.6837C24.1978 30.6908 24.1941 30.6944 24.1941 30.7015C24.1795 30.7479 24.1649 30.7908 24.1503 30.8371C24.1503 30.8407 24.1467 30.8514 24.1394 30.8657V30.8693C24.1211 30.9049 24.1029 30.9371 24.0883 30.9727C24.081 30.9834 24.0737 30.9977 24.07 31.0084C24.0591 31.0298 24.0445 31.0548 24.0335 31.0762C24.0189 31.1012 24.0043 31.1262 23.9861 31.1512C23.9824 31.1583 23.9788 31.1619 23.9751 31.169C23.9605 31.1904 23.9496 31.2082 23.935 31.2297C23.924 31.2439 23.9167 31.2582 23.9058 31.2689L23.9021 31.2725C23.9021 31.276 23.8985 31.276 23.8985 31.2796C23.8948 31.2832 23.8949 31.2868 23.8912 31.2868C23.8547 31.326 23.8182 31.3688 23.7781 31.4081C23.7671 31.4188 23.7598 31.4295 23.7489 31.4366C23.7379 31.4509 23.7233 31.4616 23.7124 31.4723C23.7087 31.4759 23.7014 31.483 23.6978 31.4866C23.6868 31.4973 23.6722 31.508 23.6613 31.5223C23.6613 31.5223 23.6613 31.5223 23.6576 31.5258C23.6467 31.5365 23.6248 31.5579 23.6029 31.5794C23.5992 31.5794 23.5956 31.5829 23.5919 31.5829C23.5919 31.5829 23.5883 31.5829 23.5883 31.5865C23.5846 31.5865 23.581 31.5901 23.5773 31.5936C23.5737 31.5936 23.5737 31.5972 23.5701 31.5972C23.5555 31.6079 23.5409 31.6186 23.5263 31.6293C23.4715 31.665 23.4168 31.7007 23.362 31.7292C23.3547 31.7328 23.3511 31.7364 23.3438 31.7399C23.3365 31.7435 23.3292 31.7471 23.3219 31.7506C23.3146 31.7542 23.3109 31.7578 23.3036 31.7613C23.2854 31.772 23.2708 31.7792 23.2525 31.7863C23.2489 31.7899 23.2416 31.7935 23.238 31.7935C23.2343 31.797 23.227 31.8006 23.2197 31.8006C23.1978 31.8113 23.1759 31.822 23.154 31.8291C23.154 31.8291 23.1504 31.8291 23.1467 31.8327C23.1248 31.8434 23.1139 31.8506 23.1102 31.8506C23.1139 31.8506 23.1358 31.8398 23.1577 31.8327C23.1613 31.8291 23.165 31.8291 23.1686 31.8256C23.1796 31.822 23.1869 31.8149 23.1869 31.8149C23.1869 31.8184 23.1832 31.822 23.1759 31.8256C23.1723 31.8291 23.1686 31.8291 23.165 31.8327C23.1029 31.8648 22.9168 31.9041 22.884 31.9112C22.8365 31.9219 22.7891 31.9326 22.738 31.9433C22.727 31.9469 22.7161 31.9469 22.7088 31.9505H22.7051C22.6832 31.954 22.6613 31.954 22.6394 31.954C22.6029 31.9576 22.5665 31.9576 22.53 31.9612C22.5008 31.9612 22.4679 31.9612 22.4387 31.9612C22.4241 31.9612 22.4095 31.9612 22.3949 31.9612C22.384 31.9612 22.373 31.9612 22.3621 31.9612C22.3329 31.9612 22.3 31.9576 22.2709 31.9576H22.2672C22.2599 31.9576 22.249 31.9576 22.2417 31.954C22.2344 31.954 22.1979 31.9469 22.176 31.9469C22.176 31.9469 22.1723 31.9469 22.1687 31.9469H22.165C22.1577 31.9469 22.1468 31.9433 22.1358 31.9398C22.1285 31.9398 22.1249 31.9362 22.1176 31.9362C22.0993 31.9326 22.0847 31.9291 22.0774 31.9291C22.0665 31.9255 22.0555 31.9255 22.0446 31.9219C22.0263 31.9184 22.0081 31.9148 21.9898 31.9076C21.9752 31.9041 21.9606 31.9005 21.9461 31.8969C21.9242 31.8898 21.8986 31.8827 21.8767 31.8755C21.8621 31.872 21.8475 31.8648 21.8293 31.8613C21.8256 31.8613 21.822 31.8613 21.8183 31.8577C21.8037 31.8541 21.7891 31.847 21.7782 31.8434L21.7563 31.8363C21.7526 31.8363 21.749 31.8327 21.7453 31.8327C21.7453 31.8327 21.7453 31.8327 21.7417 31.8327L21.6942 31.8077C21.665 31.797 21.6358 31.7828 21.6213 31.772C21.5702 31.7435 21.5191 31.715 21.4716 31.6864C21.4424 31.6686 21.4132 31.6507 21.384 31.6293C21.3658 31.615 21.3037 31.5687 21.2928 31.5579C21.2381 31.5187 21.187 31.4687 21.1359 31.4188ZM32.2265 39.0301C32.1937 39.0622 32.1572 39.0943 32.1243 39.1228C32.117 39.13 32.1134 39.1335 32.1061 39.1407C32.0404 39.1978 31.9747 39.2549 31.9054 39.312C31.8506 39.3548 31.7959 39.3976 31.7448 39.4404C31.7375 39.4475 31.7265 39.4511 31.7192 39.4583C31.7156 39.4618 31.7119 39.4618 31.7119 39.4654C31.7119 39.4654 31.7119 39.4654 31.7083 39.469C31.7046 39.4725 31.701 39.4761 31.6973 39.4761C31.6827 39.4868 31.6682 39.4939 31.6572 39.5046C31.628 39.5225 31.6025 39.5439 31.5733 39.5617C31.5258 39.5939 31.4784 39.626 31.4309 39.6581C31.4017 39.6795 31.3689 39.6973 31.3361 39.7187C31.3251 39.7259 31.3142 39.733 31.3069 39.7366C31.2813 39.7544 31.2558 39.7687 31.2302 39.7865C31.2156 39.7972 31.1974 39.8044 31.1828 39.8151C31.0842 39.8722 30.9857 39.9293 30.8872 39.9828C30.7594 40.0506 30.6317 40.1148 30.5003 40.1755C30.4565 40.1969 30.4091 40.2219 30.358 40.2433C30.3544 40.2433 30.3544 40.2433 30.3507 40.2433C30.3434 40.2433 30.3361 40.2469 30.3288 40.2504C30.3252 40.2504 30.3215 40.2504 30.3215 40.254C30.2741 40.2718 30.2266 40.2897 30.1792 40.3111C30.0806 40.3468 29.9785 40.3825 29.8799 40.4146C29.6354 40.4931 29.3873 40.5609 29.1354 40.6144C29.0296 40.6358 28.9238 40.6572 28.8143 40.6751C28.7997 40.6786 28.6975 40.6929 28.6829 40.6929C28.6501 40.6965 28.6172 40.7 28.5844 40.7036C28.3289 40.7322 28.0735 40.7429 27.818 40.7429C27.6319 40.7429 27.4458 40.7357 27.2596 40.7214C27.1757 40.7143 27.0918 40.7072 27.0078 40.6965C26.9896 40.6965 26.975 40.6929 26.9567 40.6893C26.9348 40.6858 26.9202 40.6858 26.9129 40.6822C26.9239 40.6822 26.9567 40.6893 27.0042 40.6929C26.9567 40.7036 26.8582 40.6715 26.8071 40.6644C26.4495 40.6037 26.0991 40.5216 25.7561 40.4074C25.6356 40.3682 25.4641 40.3325 25.3364 40.2718C25.3437 40.2718 25.3291 40.254 25.2962 40.2397C25.2524 40.2219 25.2086 40.2005 25.1649 40.1826C25.0773 40.1434 24.9897 40.1006 24.9057 40.0577C24.5809 39.8936 24.2671 39.7045 23.9678 39.4939C23.9386 39.4725 23.9058 39.4476 23.8766 39.4261C23.8073 39.3726 23.7379 39.3155 23.6686 39.2584C23.5372 39.1478 23.4058 39.0301 23.2854 38.9087C23.1613 38.7874 23.0409 38.6625 22.9277 38.5341C22.8767 38.477 22.8256 38.4163 22.7745 38.3556C22.7489 38.3271 22.6978 38.2807 22.6869 38.245C22.6978 38.2593 22.7088 38.2736 22.7197 38.2843C22.7197 38.2807 22.7161 38.2807 22.7161 38.2771C22.6978 38.2522 22.6796 38.2272 22.6613 38.2022C22.4533 37.9239 22.2672 37.6313 22.1066 37.328C22.0628 37.2459 22.019 37.1602 21.9789 37.0746C21.957 37.0318 21.9388 36.989 21.9169 36.9461C21.9096 36.9283 21.8986 36.9105 21.8913 36.8926C21.822 36.7178 21.7526 36.5429 21.6979 36.3645C21.6322 36.1647 21.5775 35.9648 21.5337 35.7615C21.5118 35.6651 21.4935 35.5723 21.4753 35.476C21.468 35.4296 21.457 35.3796 21.4497 35.3333C21.4461 35.3083 21.4424 35.2869 21.4388 35.2619C21.4388 35.2547 21.4351 35.2476 21.4351 35.244C21.4351 35.2583 21.4424 35.2869 21.4461 35.3333C21.4023 35.2583 21.4169 35.0763 21.4096 34.9907C21.4023 34.8908 21.395 34.7944 21.3913 34.6945C21.384 34.4519 21.3877 34.2128 21.4023 33.9737C21.4059 33.9059 21.4132 33.8417 21.4205 33.7739C21.4205 33.7525 21.4424 33.5955 21.4424 33.5848C21.4607 33.4741 21.4789 33.36 21.5008 33.2493C21.5483 33.2636 21.5921 33.2743 21.6395 33.2886C21.6468 33.2886 21.6541 33.2922 21.6577 33.2922C22.249 33.4385 22.8803 33.4206 23.4642 33.2458C23.5044 33.2315 23.5482 33.2172 23.5883 33.203C24.851 32.7248 25.705 31.5865 25.7451 30.2591C25.7451 30.2484 25.7451 30.2412 25.7451 30.2305C25.7451 30.2234 25.7451 30.2162 25.7451 30.2127V30.1806C25.7451 30.177 25.7451 30.1734 25.7451 30.1699C25.7451 30.1663 25.7451 30.1627 25.7451 30.1592C25.7451 30.152 25.7451 30.1413 25.7451 30.1342C25.7451 30.1235 25.7451 30.1092 25.7451 30.0985C25.7305 29.5811 25.6064 29.0815 25.413 28.6034C25.6575 28.5142 25.902 28.4321 26.1539 28.3643C26.402 28.3001 26.6538 28.2537 26.9056 28.2073C26.9202 28.2037 26.9312 28.2037 26.9385 28.2001C26.9458 28.2001 26.9567 28.2001 26.9677 28.1966C27.0334 28.1894 27.0954 28.1823 27.1611 28.1752C27.3144 28.1609 27.4676 28.1537 27.6209 28.1466C27.8873 28.1395 28.1574 28.1466 28.4238 28.168C28.4895 28.1716 28.5552 28.1787 28.6209 28.1859C28.6355 28.1859 28.734 28.2001 28.7523 28.2037C28.88 28.2251 29.0077 28.2465 29.1354 28.2715C29.3873 28.325 29.6354 28.3893 29.8799 28.4713C29.9821 28.5034 30.0806 28.5391 30.1792 28.5784C30.1828 28.5784 30.1865 28.5819 30.1865 28.5819C30.2011 28.5855 30.212 28.5927 30.2266 28.5962C30.2485 28.6034 30.2704 28.6105 30.2923 28.6212C30.3179 28.6283 30.3398 28.639 30.3653 28.6497H30.369C30.358 28.6426 30.3471 28.639 30.3398 28.6319C30.3653 28.6426 30.3945 28.6605 30.4164 28.6676C30.42 28.6676 30.42 28.6712 30.4237 28.6712C30.4273 28.6712 30.4273 28.6747 30.431 28.6747C30.4602 28.689 30.4894 28.7033 30.5222 28.7175C30.5405 28.7247 30.5587 28.7354 30.577 28.7425C30.5989 28.7532 30.6171 28.7604 30.639 28.7711C30.6938 28.7961 30.7448 28.8246 30.7996 28.8531C30.8908 28.8995 30.9821 28.9495 31.0696 28.9994C31.0988 29.0173 31.1244 29.0316 31.1536 29.0494C31.1791 29.0637 31.2047 29.0779 31.2266 29.0958C31.3178 29.1493 31.4054 29.2064 31.493 29.2671C31.5404 29.2992 31.5915 29.3313 31.639 29.367C31.6463 29.3706 31.6536 29.3777 31.6609 29.3813C31.6609 29.3813 31.6645 29.3813 31.6645 29.3848C31.6681 29.3884 31.6791 29.3955 31.6864 29.3991C31.701 29.4098 31.7156 29.4205 31.7302 29.4312L31.7338 29.4348C31.7375 29.4348 31.7375 29.4384 31.7411 29.4384C31.7448 29.4419 31.7484 29.4419 31.7521 29.4455C31.7521 29.4455 31.7521 29.4455 31.7557 29.4455L31.7594 29.4491C31.7776 29.4633 31.7959 29.4776 31.8141 29.4919C31.8214 29.499 31.8287 29.5061 31.836 29.5097C31.8397 29.5133 31.8433 29.5169 31.847 29.5169C31.8506 29.5204 31.8506 29.5204 31.8543 29.5204C31.8579 29.524 31.8652 29.5276 31.8689 29.5311C31.8944 29.5525 31.92 29.5739 31.9492 29.5954C31.9711 29.6132 31.9966 29.6346 32.0185 29.656C32.0221 29.6596 32.0258 29.6632 32.0294 29.6667C32.0404 29.6774 32.0513 29.6846 32.0623 29.6953C32.0842 29.7131 32.1024 29.731 32.1243 29.7488C32.1462 29.7666 32.1645 29.7845 32.1864 29.8023C32.2448 29.8558 32.3068 29.9129 32.3652 29.97C32.3871 29.9914 32.409 30.0129 32.4309 30.0343C32.4674 30.0699 32.5075 30.1092 32.544 30.1485C32.5659 30.1734 32.5915 30.1984 32.6134 30.2198C32.6316 30.2412 32.6535 30.2626 32.6717 30.284C32.6863 30.3019 32.7009 30.3197 32.7192 30.334C32.7447 30.3626 32.7666 30.3911 32.7922 30.4161C32.8104 30.4375 32.8287 30.4589 32.8469 30.4803C32.8579 30.4946 32.8688 30.5089 32.8834 30.5231C32.8871 30.5267 32.8907 30.5338 32.898 30.541C32.898 30.541 32.9017 30.5445 32.9017 30.5481C32.9017 30.5481 32.9017 30.5481 32.9017 30.5517C32.909 30.5588 32.9163 30.5695 32.9236 30.5767C32.9783 30.6445 33.0294 30.7194 33.0805 30.7943C33.1024 30.8229 33.1206 30.8514 33.1389 30.88C33.1681 30.9228 33.1973 30.9656 33.2265 31.012C33.2703 31.0798 33.314 31.1476 33.3542 31.2154C33.3724 31.2439 33.3907 31.2725 33.4053 31.301C33.4235 31.3296 33.4381 31.3581 33.4564 31.3867C33.5038 31.4687 33.5476 31.5508 33.5914 31.6365C33.606 31.6614 33.617 31.6864 33.6315 31.7114C33.6315 31.715 33.6352 31.715 33.6352 31.7185C33.6498 31.7471 33.6644 31.7792 33.679 31.8077C33.6936 31.8363 33.7082 31.8684 33.7228 31.8969C33.7337 31.9183 33.741 31.9398 33.752 31.9612C33.7629 31.9826 33.7702 32.0004 33.7775 32.0218C33.7775 32.0183 33.7775 32.0183 33.7739 32.0147C33.7739 32.0147 33.7739 32.0147 33.7739 32.0111C33.7739 32.0076 33.7702 32.004 33.7702 32.0004C33.7739 32.0076 33.7739 32.0111 33.7775 32.0183C33.7812 32.0254 33.7812 32.029 33.7812 32.029C33.7921 32.0575 33.8031 32.0861 33.8067 32.1003C33.8505 32.211 33.8907 32.3216 33.9272 32.4322C33.949 32.4964 33.9709 32.5642 33.9892 32.6284C33.9965 32.6499 34.0038 32.6713 34.0074 32.6927C34.0111 32.7034 34.0147 32.7105 34.0147 32.7212C34.0184 32.7319 34.022 32.7462 34.0257 32.7569C34.0293 32.7676 34.0293 32.7748 34.033 32.7855C34.0403 32.8069 34.0439 32.8283 34.0512 32.8497C34.0622 32.8925 34.0731 32.9318 34.0841 32.9746C34.0877 32.9924 34.095 33.0103 34.0987 33.0317C34.1133 33.0959 34.1279 33.1637 34.1425 33.2279C34.1498 33.26 34.1534 33.2886 34.1607 33.3207C34.168 33.3564 34.1717 33.3885 34.179 33.4206C34.1826 33.4385 34.1863 33.4527 34.1863 33.4706C34.1899 33.492 34.1972 33.517 34.2009 33.5419C34.2009 33.5491 34.2045 33.5526 34.2045 33.5598C34.2045 33.5705 34.2082 33.5776 34.2082 33.5883C34.2082 33.5919 34.2082 33.5919 34.2082 33.5955C34.2082 33.599 34.2082 33.6026 34.2082 33.6062C34.2082 33.6062 34.2082 33.6062 34.2082 33.6097C34.2045 33.4349 34.2118 33.6276 34.2155 33.6847C34.2155 33.6882 34.2155 33.6882 34.2155 33.6918C34.2191 33.7275 34.2228 33.7596 34.2264 33.7953C34.2301 33.8238 34.2301 33.8488 34.2337 33.8738C34.2374 33.9023 34.2374 33.9309 34.241 33.9594C34.241 33.9809 34.2447 34.0023 34.2447 34.0201C34.2447 34.0379 34.2483 34.0558 34.2483 34.0701C34.2483 34.0986 34.252 34.1307 34.252 34.1593C34.252 34.1771 34.252 34.195 34.2556 34.2128C34.2556 34.2556 34.2593 34.2984 34.2593 34.3448C34.2593 34.3734 34.2593 34.3983 34.2593 34.4269C34.2593 34.4983 34.2593 34.5732 34.2556 34.6446C34.2556 34.6695 34.2556 34.691 34.252 34.7159V34.7195C34.252 34.7445 34.2483 34.7659 34.2483 34.7909C34.2483 34.8158 34.2447 34.8373 34.2447 34.8622C34.2447 34.8765 34.2447 34.8908 34.241 34.9051C34.241 34.93 34.2374 34.955 34.2374 34.98C34.2374 34.9907 34.2337 35.005 34.2337 35.0157C34.2337 35.0299 34.2301 35.0478 34.2301 35.0621C34.2301 35.0692 34.2301 35.0728 34.2301 35.0799C34.2228 35.1441 34.2155 35.2048 34.2082 35.269V35.2726V35.2762C34.2082 35.2833 34.2045 35.294 34.2045 35.3047C34.2009 35.3297 34.1972 35.3547 34.1936 35.3796C34.1899 35.4046 34.1863 35.4296 34.1826 35.4546C34.179 35.4689 34.179 35.4796 34.1753 35.4938C34.168 35.5366 34.1607 35.5759 34.1498 35.6187C34.1498 35.6223 34.1498 35.6223 34.1498 35.6259C34.1461 35.6544 34.1388 35.6794 34.1315 35.7079C34.1315 35.7151 34.1279 35.7258 34.1242 35.7329C34.1242 35.74 34.1206 35.7436 34.1206 35.7507C34.1206 35.7579 34.1169 35.765 34.1169 35.7686C34.106 35.8078 34.0987 35.8507 34.0877 35.8899C34.0877 35.8899 34.0877 35.8899 34.0877 35.8935C34.0768 35.9399 34.0658 35.9827 34.0512 36.0291C34.0403 36.0719 34.0257 36.1147 34.0147 36.1611C34.0147 36.1647 34.0147 36.1682 34.0111 36.1718C34.0001 36.2146 33.9855 36.2575 33.9709 36.3003C33.9709 36.3038 33.9709 36.3038 33.9673 36.3074C33.9527 36.3467 33.9417 36.3859 33.9272 36.4287C33.9272 36.4323 33.9235 36.4394 33.9235 36.443C33.9162 36.4608 33.9126 36.4787 33.9053 36.4965C33.898 36.5108 33.8943 36.5286 33.887 36.5429C33.887 36.5465 33.8834 36.5501 33.8834 36.5572C33.8797 36.5679 33.8761 36.5786 33.8724 36.5857C33.8615 36.6107 33.8542 36.6357 33.8432 36.6607C33.8359 36.6785 33.8323 36.6928 33.825 36.7106C33.814 36.7356 33.8067 36.757 33.7958 36.782C33.7885 36.7998 33.7812 36.8177 33.7739 36.8355C33.7739 36.8391 33.7702 36.8462 33.7702 36.8498C33.7702 36.8534 33.7702 36.8534 33.7666 36.8569C33.7666 36.8569 33.7666 36.8569 33.7666 36.8605C33.7666 36.8676 33.7629 36.8712 33.7593 36.8783C33.7556 36.8819 33.7556 36.8855 33.752 36.8926C33.741 36.914 33.7337 36.9319 33.7228 36.9533C33.6972 37.0068 33.6717 37.0603 33.6461 37.1139C33.6024 37.2031 33.5549 37.2923 33.5075 37.3815C33.4929 37.41 33.4746 37.4386 33.46 37.4671C33.4527 37.4814 33.4418 37.4992 33.4345 37.5135C33.4235 37.5349 33.4089 37.5599 33.3943 37.5813C33.3834 37.5991 33.3724 37.617 33.3615 37.6348C33.325 37.6955 33.2885 37.7562 33.2484 37.8133C33.2192 37.8561 33.1936 37.8989 33.1644 37.9381C33.1425 37.9738 33.117 38.0059 33.0951 38.0381C33.0951 38.0416 33.0914 38.0416 33.0914 38.0452C33.0732 38.0702 33.0549 38.0951 33.0367 38.1201C33.0294 38.1273 33.0257 38.138 33.0184 38.1451C32.9856 38.1915 32.9528 38.2343 32.9163 38.2807C32.9163 38.2807 32.9163 38.2807 32.9163 38.2843C32.9163 38.2843 32.9126 38.2878 32.9126 38.2914C32.909 38.295 32.909 38.2985 32.9053 38.3021C32.9017 38.3057 32.898 38.3092 32.898 38.3128C32.8871 38.3271 32.8725 38.3414 32.8615 38.3521C32.6754 38.5769 32.4747 38.7874 32.2594 38.9872C32.2375 39.0194 32.2338 39.0265 32.2265 39.0301ZM39.3283 35.0977C39.3247 35.1477 39.3174 35.1941 39.3137 35.244C39.3137 35.2512 39.3137 35.2583 39.3101 35.2655C39.2882 35.3725 39.2772 35.4796 39.2553 35.5866C39.175 35.9863 39.0619 36.3788 38.9159 36.7606C38.8977 36.8034 38.8794 36.8498 38.8612 36.8926C38.8612 36.8926 38.8612 36.8926 38.8612 36.8962C38.8137 36.9961 38.77 37.096 38.7189 37.1959C38.6313 37.3708 38.5327 37.5421 38.4306 37.7098C38.3247 37.8846 38.2079 38.0523 38.0875 38.2165C38.0693 38.2415 38.0291 38.3164 38.0036 38.3271C38.0036 38.3235 38.0401 38.2807 38.0547 38.2629C38.051 38.2664 38.0474 38.27 38.0437 38.2736C38.0291 38.2914 38.0145 38.3093 37.9999 38.3271C37.9306 38.4127 37.8576 38.4948 37.7846 38.5769C37.5182 38.873 37.2226 39.1478 36.9087 39.3976C36.8905 39.4119 36.8722 39.4261 36.854 39.4404C36.8394 39.4511 36.8321 39.4618 36.8285 39.4654C36.8066 39.4797 36.7847 39.4904 36.7737 39.4975C36.6898 39.5582 36.6058 39.6153 36.5183 39.6724C36.3467 39.783 36.1679 39.89 35.9854 39.9864C35.803 40.0863 35.6132 40.1684 35.4234 40.254H35.4198C35.376 40.2718 35.3285 40.2897 35.2847 40.3075C35.1862 40.3432 35.0877 40.3789 34.9855 40.411C34.5804 40.543 34.1717 40.6037 33.7556 40.6929C33.741 40.6929 33.7264 40.6965 33.7082 40.7C33.6498 40.7072 33.5914 40.7107 33.533 40.7179C33.4053 40.7286 33.2812 40.7357 33.1535 40.7393C32.9053 40.7464 32.6572 40.7429 32.4053 40.725C32.398 40.725 32.3907 40.725 32.3834 40.725C33.2338 40.1291 33.9636 39.3798 34.5184 38.5126C34.522 38.5091 34.5257 38.5019 34.5293 38.4984C35.1899 37.4421 35.5913 36.2432 35.6862 35.0014C35.6862 34.9978 35.6862 34.9907 35.6862 34.9871C35.6971 34.8373 35.7008 34.6874 35.7008 34.5375C35.7008 34.4804 35.7008 34.4233 35.7008 34.3662C35.6716 32.6249 35.0366 30.9121 33.8943 29.5347C33.8651 29.5026 33.8396 29.4705 33.8104 29.4348C33.7812 29.4027 33.7556 29.3706 33.7264 29.3384C33.6972 29.3063 33.668 29.2742 33.6388 29.2421C33.617 29.2171 33.5914 29.1921 33.5695 29.1672C33.533 29.1279 33.4929 29.0887 33.4564 29.0494C33.4272 29.0209 33.4016 28.9923 33.3724 28.9673C33.3359 28.9316 33.2958 28.896 33.2593 28.8603C33.2265 28.8282 33.1936 28.7996 33.1571 28.7675C32.9199 28.5534 32.6681 28.3571 32.4053 28.1752C32.4053 28.1752 32.409 28.1752 32.4126 28.1752C32.7958 28.1502 33.179 28.1502 33.5622 28.1823C33.6133 28.1859 33.6644 28.193 33.7118 28.1966C33.7191 28.1966 33.7337 28.2001 33.7483 28.2001C33.7593 28.2001 33.8432 28.2108 33.8651 28.2144C33.9308 28.2251 33.9965 28.2358 34.0622 28.2465C34.2629 28.2822 34.4636 28.3286 34.6607 28.3821C34.8651 28.4356 35.0658 28.5034 35.2628 28.5748C35.3066 28.5927 35.3541 28.6105 35.3979 28.6283C35.4052 28.6319 35.4125 28.6355 35.4198 28.6355C35.4088 28.6319 35.4052 28.6283 35.4052 28.6283C35.4672 28.6141 35.6533 28.739 35.7117 28.7675C36.0767 28.9424 36.427 29.1493 36.7591 29.3813C36.7883 29.4027 36.8795 29.4491 36.8941 29.4776C36.8941 29.4776 36.8905 29.474 36.8832 29.4705C36.8868 29.474 36.8905 29.4776 36.8978 29.4812C36.9781 29.5454 37.0584 29.6096 37.135 29.6774C37.2919 29.8095 37.4379 29.9486 37.5839 30.0949C37.7262 30.2412 37.8649 30.3911 37.9926 30.5481C38.0109 30.5695 38.0985 30.6908 38.0401 30.6052C38.0291 30.5909 38.0255 30.5838 38.0218 30.5767C38.0328 30.5909 38.0729 30.648 38.0839 30.6623C38.1459 30.7444 38.2043 30.8264 38.2627 30.9121C38.4926 31.2511 38.6897 31.6079 38.8612 31.9754C38.8502 31.9576 38.8466 31.9469 38.8429 31.9469C38.8466 31.9576 38.8685 31.9933 38.8758 32.0076C38.8977 32.0575 38.9159 32.111 38.9378 32.161C38.9816 32.2716 39.0218 32.3858 39.0583 32.4964C39.1276 32.7105 39.186 32.9246 39.2371 33.1459C39.2626 33.2636 39.2882 33.3849 39.3064 33.5027C39.3101 33.5277 39.3247 33.6276 39.3247 33.6383C39.3283 33.6668 39.332 33.6918 39.332 33.7025C39.3575 33.9487 39.3721 34.1985 39.3721 34.4483C39.3612 34.666 39.3502 34.8836 39.3283 35.0977Z" fill="#3E3E3E"/>
<path d="M44.6898 15.5932C44.3759 15.1936 43.9125 15.0009 43.4052 15.0009H16.7132C16.6183 15.0009 16.5198 14.9973 16.4249 15.0045C15.6111 15.0723 15.0089 15.7181 15.0016 16.5139C14.998 16.8529 15.0016 17.1883 15.0016 17.5273V21.663H45V16.5888C45 16.2284 44.9161 15.8858 44.6898 15.5932ZM34.0663 19.1437H29.333C28.9242 19.1437 28.6213 18.8154 28.6031 18.4301C28.5848 18.0447 28.9498 17.7164 29.333 17.7164H34.0663C34.475 17.7164 34.7779 18.0447 34.7962 18.4301C34.8144 18.8154 34.4495 19.1437 34.0663 19.1437ZM39.4711 19.7682C38.7157 19.7682 38.1026 19.1687 38.1026 18.4301C38.1026 17.6914 38.7157 17.0919 39.4711 17.0919C40.2265 17.0919 40.8396 17.6914 40.8396 18.4301C40.8396 19.1687 40.2265 19.7682 39.4711 19.7682Z" fill="#3E3E3E"/>
</g>
<defs>
<clipPath id="clip0_2133_3400">
<rect width="30" height="30" fill="white" transform="translate(15 15)"/>
</clipPath>
</defs>
</svg>
