<svg width="60" height="60" viewBox="0 0 60 60" fill="none" xmlns="http://www.w3.org/2000/svg">
<rect width="60" height="60" rx="3" fill="#FED036"/>
<g clip-path="url(#clip0_2133_3398)">
<path d="M36.2073 33.2733C35.1869 33.2733 34.6755 32.7882 34.6755 32.7882C34.6755 32.7882 34.166 32.3002 33.147 32.3002C32.128 32.3002 31.6161 32.7882 31.6161 32.7882C31.6161 32.7882 31.1051 33.2733 30.0852 33.2733C29.0662 33.2733 28.5548 32.7882 28.5548 32.7882C28.5548 32.7882 28.0467 32.3002 27.0278 32.3002C26.0054 32.3002 25.4959 32.7882 25.4959 32.7882C25.4959 32.7882 24.9864 33.2733 23.9664 33.2733C22.945 33.2733 22.4355 32.7882 22.4355 32.7882V33.4977H22.4365C22.4365 37.533 25.8625 40.8029 30.0881 40.8029C34.3137 40.8029 37.7387 37.533 37.7387 33.4977H37.7353V32.7882C37.7368 32.7882 37.2263 33.2733 36.2073 33.2733Z" fill="#3E3E3E"/>
<path d="M34.7049 31.0773C34.7049 31.0773 34.1988 30.5941 33.1882 30.5941C32.1784 30.5941 31.6733 31.0773 31.6733 31.0773C31.6733 31.0773 31.1663 31.5606 30.1551 31.5606C29.1464 31.5606 28.6383 31.0773 28.6383 31.0773C28.6383 31.0773 28.1342 30.5941 27.1245 30.5941C26.1124 30.5941 25.6063 31.0773 25.6063 31.0773C25.6063 31.0773 25.1026 31.5606 24.0905 31.5606C23.0803 31.5606 22.5747 31.0773 22.5747 31.0773V32.0439C22.5747 32.0439 23.0808 32.5249 24.0905 32.5249C25.1026 32.5249 25.6063 32.0439 25.6063 32.0439C25.6063 32.0439 26.1124 31.5606 27.1245 31.5606C28.1342 31.5606 28.6383 32.0439 28.6383 32.0439C28.6383 32.0439 29.1464 32.5249 30.1551 32.5249C31.1663 32.5249 31.6733 32.0439 31.6733 32.0439C31.6733 32.0439 32.1784 31.5606 33.1882 31.5606C34.1988 31.5606 34.7049 32.0439 34.7049 32.0439C34.7049 32.0439 35.21 32.5249 36.2207 32.5249C37.2319 32.5249 37.737 32.0439 37.737 32.0439V31.0773C37.737 31.0773 37.2319 31.5606 36.2207 31.5606C35.21 31.5606 34.7049 31.0773 34.7049 31.0773Z" fill="#3E3E3E"/>
<path d="M18.1333 22.1855H17.1582V23.1167V33.5642V44.0116C17.1582 44.5242 17.597 44.9428 18.1333 44.9428H42.1826C42.7189 44.9428 43.1577 44.5242 43.1577 44.0116V33.5646V23.1167V22.1855H42.1826H18.1333ZM30.1577 41.8405C25.371 41.8405 21.4901 38.1344 21.4901 33.5646C21.4901 28.9925 25.371 25.2864 30.1577 25.2864C34.9445 25.2864 38.8249 28.9925 38.8249 33.5646C38.8244 38.1344 34.944 41.8405 30.1577 41.8405Z" fill="#3E3E3E"/>
<path d="M42.1831 14.9418H18.1323C17.597 14.9418 17.1582 15.3609 17.1582 15.8721V18.045V20.2179V21.1482H18.1323H42.1831H43.1582V20.2179V18.045V15.8721C43.1582 15.3609 42.7194 14.9418 42.1831 14.9418ZM25.8249 17.9421V18.045V19.1825C25.8249 19.696 25.3861 20.1146 24.8498 20.1146H20.3005C19.7627 20.1146 19.3244 19.6955 19.3244 19.1825V18.045V17.9421V17.01H20.3005H24.8498H25.8249V17.9421ZM33.4072 19.0796C32.809 19.0796 32.3244 18.6154 32.3244 18.0445C32.3244 17.4733 32.809 17.0095 33.4072 17.0095C34.0055 17.0095 34.4901 17.4737 34.4901 18.0445C34.4901 18.6154 34.0055 19.0796 33.4072 19.0796ZM36.6577 19.0796C36.0595 19.0796 35.5749 18.6154 35.5749 18.0445C35.5749 17.4733 36.0595 17.0095 36.6577 17.0095C37.2555 17.0095 37.7406 17.4737 37.7406 18.0445C37.7406 18.6154 37.2555 19.0796 36.6577 19.0796ZM39.9092 19.0796C39.311 19.0796 38.8263 18.6154 38.8263 18.0445C38.8263 17.4733 39.311 17.0095 39.9092 17.0095C40.5074 17.0095 40.992 17.4737 40.992 18.0445C40.992 18.6154 40.5074 19.0796 39.9092 19.0796Z" fill="#3E3E3E"/>
</g>
<defs>
<clipPath id="clip0_2133_3398">
<rect width="26" height="30" fill="white" transform="translate(17 15)"/>
</clipPath>
</defs>
</svg>
