<svg width="60" height="60" viewBox="0 0 60 60" fill="none" xmlns="http://www.w3.org/2000/svg">
<rect width="60" height="60" rx="3" fill="#FED036"/>
<g clip-path="url(#clip0_2133_3401)">
<path d="M45 14.9722H41.3159V24.2964H45V14.9722Z" fill="#3E3E3E"/>
<path d="M38.1777 27.7298H29.8589V31.8389H38.1777V27.7298Z" fill="#3E3E3E"/>
<path d="M23.3135 13.6829H15V17.8535H23.3135V13.6829Z" fill="#3E3E3E"/>
<path d="M22.597 18.8041H15.7324V29.397H22.597V18.8041Z" fill="#3E3E3E"/>
<path d="M37.4702 32.8251V33.0228C37.4387 36.2115 36.2797 39.2576 34.2448 41.5C32.2099 43.7424 29.4634 45.0001 26.6013 45.0001C23.7392 45.0001 20.9926 43.7424 18.9578 41.5C16.9229 39.2576 15.7639 36.2115 15.7324 33.0228V30.2761H22.597V33.0228C22.5874 33.6155 22.6838 34.2044 22.8808 34.7551C23.0777 35.3058 23.3711 35.8073 23.7439 36.2302C24.1166 36.6531 24.5613 36.9891 25.0519 37.2184C25.5425 37.4477 26.0693 37.5658 26.6013 37.5658C27.1333 37.5658 27.66 37.4477 28.1506 37.2184C28.6413 36.9891 29.0859 36.6531 29.4587 36.2302C29.8315 35.8073 30.1249 35.3058 30.3218 34.7551C30.5187 34.2044 30.6152 33.6155 30.6055 33.0228V32.8251H37.4702Z" fill="#3E3E3E"/>
<path d="M39.7579 15.8159C37.3305 15.8159 35.0025 16.8903 33.2861 18.8026C31.5697 20.715 30.6055 23.3087 30.6055 26.0132V26.8482H37.4701V26.0132C37.4701 25.3372 37.7111 24.6889 38.1402 24.2108C38.5692 23.7328 39.1511 23.4643 39.7579 23.4643H40.5086V15.8101L39.7579 15.8159Z" fill="#3E3E3E"/>
</g>
<defs>
<clipPath id="clip0_2133_3401">
<rect width="30" height="30" fill="white" transform="translate(15 15)"/>
</clipPath>
</defs>
</svg>
